<mxfile host="Electron" modified="2023-08-12T15:22:50.293Z" agent="Mozilla/5.0 (Macintosh; Intel Mac OS X 10_15_7) AppleWebKit/537.36 (KHTML, like Gecko) draw.io/21.6.8 Chrome/114.0.5735.289 Electron/25.5.0 Safari/537.36" etag="s6D54v8wb3qi22qivoZK" version="21.6.8" type="device">
  <diagram name="Страница — 1" id="m221DAsW7OkWngLcukiW">
    <mxGraphModel dx="1674" dy="2023" grid="1" gridSize="10" guides="1" tooltips="1" connect="1" arrows="1" fold="1" page="1" pageScale="1" pageWidth="827" pageHeight="1169" math="0" shadow="0">
      <root>
        <mxCell id="0" />
        <mxCell id="1" parent="0" />
        <mxCell id="0DhHoTf68kPqU92hIy3U-10" value="" style="rounded=0;whiteSpace=wrap;html=1;" parent="1" vertex="1">
          <mxGeometry y="-260" width="1560" height="870" as="geometry" />
        </mxCell>
        <mxCell id="0DhHoTf68kPqU92hIy3U-12" value="&lt;b style=&quot;border-color: var(--border-color); color: rgb(0, 0, 0); font-family: Helvetica; font-style: normal; font-variant-ligatures: normal; font-variant-caps: normal; letter-spacing: normal; orphans: 2; text-align: center; text-indent: 0px; text-transform: none; widows: 2; word-spacing: 0px; -webkit-text-stroke-width: 0px; background-color: rgb(251, 251, 251); text-decoration-thickness: initial; text-decoration-style: initial; text-decoration-color: initial;&quot;&gt;&lt;font style=&quot;font-size: 14px;&quot;&gt;Сохранить&lt;/font&gt;&lt;/b&gt;" style="rounded=1;whiteSpace=wrap;html=1;" parent="1" vertex="1">
          <mxGeometry x="320" y="540" width="120" height="60" as="geometry" />
        </mxCell>
        <mxCell id="0DhHoTf68kPqU92hIy3U-13" value="&lt;b style=&quot;border-color: var(--border-color);&quot;&gt;&lt;font style=&quot;font-size: 14px;&quot;&gt;Печать&lt;/font&gt;&lt;/b&gt;" style="rounded=1;whiteSpace=wrap;html=1;" parent="1" vertex="1">
          <mxGeometry x="460" y="540" width="120" height="60" as="geometry" />
        </mxCell>
        <mxCell id="0DhHoTf68kPqU92hIy3U-14" value="&lt;b style=&quot;border-color: var(--border-color);&quot;&gt;&lt;font style=&quot;font-size: 14px;&quot;&gt;Добавить комментарий&lt;/font&gt;&lt;/b&gt;" style="rounded=1;whiteSpace=wrap;html=1;" parent="1" vertex="1">
          <mxGeometry x="20" y="540" width="120" height="60" as="geometry" />
        </mxCell>
        <mxCell id="0DhHoTf68kPqU92hIy3U-16" value="&lt;b style=&quot;border-color: var(--border-color);&quot;&gt;&lt;font style=&quot;font-size: 14px;&quot;&gt;Отправить/рассылка&lt;/font&gt;&lt;/b&gt;&amp;nbsp;&lt;br style=&quot;border-color: var(--border-color);&quot;&gt;(Почта, Telegram, WhatsApp, Viber," style="rounded=1;whiteSpace=wrap;html=1;" parent="1" vertex="1">
          <mxGeometry x="175" y="540" width="120" height="60" as="geometry" />
        </mxCell>
        <mxCell id="0DhHoTf68kPqU92hIy3U-23" value="&lt;font style=&quot;font-size: 18px;&quot;&gt;&lt;b&gt;Окно просмотра&lt;/b&gt;&lt;/font&gt;" style="rounded=0;whiteSpace=wrap;html=1;" parent="1" vertex="1">
          <mxGeometry x="20" y="-250" width="1220" height="480" as="geometry" />
        </mxCell>
        <mxCell id="0DhHoTf68kPqU92hIy3U-33" style="edgeStyle=orthogonalEdgeStyle;rounded=0;orthogonalLoop=1;jettySize=auto;html=1;exitX=0.5;exitY=1;exitDx=0;exitDy=0;" parent="1" edge="1">
          <mxGeometry relative="1" as="geometry">
            <mxPoint x="310" y="550" as="sourcePoint" />
            <mxPoint x="310" y="550" as="targetPoint" />
          </mxGeometry>
        </mxCell>
        <mxCell id="0DhHoTf68kPqU92hIy3U-42" value="&lt;font style=&quot;font-size: 18px;&quot;&gt;&lt;b&gt;Фильтр&lt;/b&gt;&lt;/font&gt;" style="text;html=1;strokeColor=none;fillColor=none;align=center;verticalAlign=middle;whiteSpace=wrap;rounded=0;" parent="1" vertex="1">
          <mxGeometry x="1395" y="-260" width="60" height="30" as="geometry" />
        </mxCell>
        <mxCell id="0DhHoTf68kPqU92hIy3U-43" value="&lt;font style=&quot;font-size: 18px;&quot;&gt;&lt;b style=&quot;&quot;&gt;Сформировать&lt;/b&gt;&lt;/font&gt;" style="rounded=1;whiteSpace=wrap;html=1;" parent="1" vertex="1">
          <mxGeometry x="1380" y="540" width="157.5" height="60" as="geometry" />
        </mxCell>
        <mxCell id="0DhHoTf68kPqU92hIy3U-44" value="" style="rounded=1;whiteSpace=wrap;html=1;" parent="1" vertex="1">
          <mxGeometry x="1330" y="-210" width="190" height="160" as="geometry" />
        </mxCell>
        <mxCell id="0DhHoTf68kPqU92hIy3U-45" value="" style="rounded=1;whiteSpace=wrap;html=1;" parent="1" vertex="1">
          <mxGeometry x="1345" y="-170" width="160" height="110" as="geometry" />
        </mxCell>
        <mxCell id="0DhHoTf68kPqU92hIy3U-46" value="&lt;font style=&quot;font-size: 14px;&quot;&gt;&lt;b&gt;Продукт&lt;/b&gt;&lt;/font&gt;" style="text;html=1;strokeColor=none;fillColor=none;align=center;verticalAlign=middle;whiteSpace=wrap;rounded=0;" parent="1" vertex="1">
          <mxGeometry x="1395" y="-200" width="60" height="30" as="geometry" />
        </mxCell>
        <mxCell id="0DhHoTf68kPqU92hIy3U-47" value="&lt;font style=&quot;font-size: 14px;&quot;&gt;&lt;b&gt;Тип&lt;/b&gt;&lt;/font&gt;" style="text;html=1;strokeColor=none;fillColor=none;align=center;verticalAlign=middle;whiteSpace=wrap;rounded=0;" parent="1" vertex="1">
          <mxGeometry x="1395" y="-160" width="60" height="30" as="geometry" />
        </mxCell>
        <mxCell id="0DhHoTf68kPqU92hIy3U-48" value="&lt;font style=&quot;font-size: 14px;&quot;&gt;&lt;b&gt;Категория&lt;/b&gt;&lt;/font&gt;" style="rounded=1;whiteSpace=wrap;html=1;" parent="1" vertex="1">
          <mxGeometry x="1370" y="-130" width="120" height="60" as="geometry" />
        </mxCell>
        <mxCell id="0DhHoTf68kPqU92hIy3U-49" value="&lt;font style=&quot;font-size: 14px;&quot;&gt;&lt;b&gt;Остаток&lt;/b&gt;&lt;/font&gt;" style="rounded=1;whiteSpace=wrap;html=1;" parent="1" vertex="1">
          <mxGeometry x="1335" y="-30" width="190" height="60" as="geometry" />
        </mxCell>
        <mxCell id="0DhHoTf68kPqU92hIy3U-50" value="" style="rounded=1;whiteSpace=wrap;html=1;" parent="1" vertex="1">
          <mxGeometry x="1340" y="50" width="190" height="180" as="geometry" />
        </mxCell>
        <mxCell id="0DhHoTf68kPqU92hIy3U-51" value="&lt;font style=&quot;font-size: 14px;&quot;&gt;&lt;b&gt;Период&lt;/b&gt;&lt;/font&gt;" style="text;html=1;strokeColor=none;fillColor=none;align=center;verticalAlign=middle;whiteSpace=wrap;rounded=0;" parent="1" vertex="1">
          <mxGeometry x="1400" y="60" width="60" height="30" as="geometry" />
        </mxCell>
        <mxCell id="0DhHoTf68kPqU92hIy3U-52" value="&lt;b&gt;Начальная дата&lt;/b&gt;" style="rounded=1;whiteSpace=wrap;html=1;" parent="1" vertex="1">
          <mxGeometry x="1375" y="90" width="120" height="60" as="geometry" />
        </mxCell>
        <mxCell id="0DhHoTf68kPqU92hIy3U-53" value="&lt;b&gt;Конечная дата&lt;/b&gt;" style="rounded=1;whiteSpace=wrap;html=1;" parent="1" vertex="1">
          <mxGeometry x="1375" y="160" width="120" height="60" as="geometry" />
        </mxCell>
        <mxCell id="0DhHoTf68kPqU92hIy3U-55" value="&lt;b&gt;&lt;font style=&quot;font-size: 14px;&quot;&gt;Брак&lt;/font&gt;&lt;/b&gt;" style="rounded=1;whiteSpace=wrap;html=1;" parent="1" vertex="1">
          <mxGeometry x="1345" y="250" width="190" height="60" as="geometry" />
        </mxCell>
        <mxCell id="0DhHoTf68kPqU92hIy3U-56" value="&lt;font style=&quot;font-size: 14px;&quot;&gt;&lt;b&gt;Поставщик&lt;/b&gt;&lt;/font&gt;" style="rounded=1;whiteSpace=wrap;html=1;" parent="1" vertex="1">
          <mxGeometry x="1345" y="330" width="192.5" height="60" as="geometry" />
        </mxCell>
        <mxCell id="0DhHoTf68kPqU92hIy3U-57" value="&lt;b&gt;&lt;font style=&quot;font-size: 14px;&quot;&gt;Покупатель&lt;/font&gt;&lt;/b&gt;" style="rounded=1;whiteSpace=wrap;html=1;" parent="1" vertex="1">
          <mxGeometry x="1347.5" y="410" width="190" height="60" as="geometry" />
        </mxCell>
        <mxCell id="Fq1G9OksXKFBcymXGuAl-4" value="" style="rounded=1;whiteSpace=wrap;html=1;" vertex="1" parent="1">
          <mxGeometry x="20" y="250" width="580" height="260" as="geometry" />
        </mxCell>
        <mxCell id="Fq1G9OksXKFBcymXGuAl-5" value="&lt;font style=&quot;font-size: 18px;&quot;&gt;&lt;b style=&quot;&quot;&gt;График&lt;/b&gt;&lt;/font&gt;" style="text;html=1;strokeColor=none;fillColor=none;align=center;verticalAlign=middle;whiteSpace=wrap;rounded=0;" vertex="1" parent="1">
          <mxGeometry x="205" y="250" width="210" height="30" as="geometry" />
        </mxCell>
        <mxCell id="Fq1G9OksXKFBcymXGuAl-6" value="&lt;b&gt;Линейная диаграмма&lt;/b&gt;" style="rounded=1;whiteSpace=wrap;html=1;" vertex="1" parent="1">
          <mxGeometry x="180" y="290" width="120" height="60" as="geometry" />
        </mxCell>
        <mxCell id="Fq1G9OksXKFBcymXGuAl-7" value="&lt;b&gt;Диаграмма с двойной осью&lt;/b&gt;" style="rounded=1;whiteSpace=wrap;html=1;" vertex="1" parent="1">
          <mxGeometry x="320" y="290" width="120" height="60" as="geometry" />
        </mxCell>
        <mxCell id="Fq1G9OksXKFBcymXGuAl-8" value="&lt;b&gt;Областная диаграмма&lt;/b&gt;" style="rounded=1;whiteSpace=wrap;html=1;" vertex="1" parent="1">
          <mxGeometry x="460" y="290" width="120" height="60" as="geometry" />
        </mxCell>
        <mxCell id="Fq1G9OksXKFBcymXGuAl-10" value="&lt;b&gt;Штабельная диаграмма&lt;/b&gt;" style="rounded=1;whiteSpace=wrap;html=1;" vertex="1" parent="1">
          <mxGeometry x="40" y="365" width="120" height="60" as="geometry" />
        </mxCell>
        <mxCell id="Fq1G9OksXKFBcymXGuAl-11" value="&lt;b&gt;Круговая&amp;nbsp; диаграмма&lt;/b&gt;" style="rounded=1;whiteSpace=wrap;html=1;" vertex="1" parent="1">
          <mxGeometry x="180" y="365" width="120" height="60" as="geometry" />
        </mxCell>
        <mxCell id="Fq1G9OksXKFBcymXGuAl-12" value="&lt;b&gt;Диаграмма - Водопад&lt;/b&gt;" style="rounded=1;whiteSpace=wrap;html=1;" vertex="1" parent="1">
          <mxGeometry x="320" y="365" width="120" height="60" as="geometry" />
        </mxCell>
        <mxCell id="Fq1G9OksXKFBcymXGuAl-13" value="&lt;b&gt;Воронкообразная&lt;br&gt;диаграмма&lt;br&gt;&lt;/b&gt;" style="rounded=1;whiteSpace=wrap;html=1;" vertex="1" parent="1">
          <mxGeometry x="460" y="365" width="120" height="60" as="geometry" />
        </mxCell>
        <mxCell id="Fq1G9OksXKFBcymXGuAl-14" value="&lt;b&gt;Точечная диаграмма&lt;/b&gt;" style="rounded=1;whiteSpace=wrap;html=1;" vertex="1" parent="1">
          <mxGeometry x="40" y="440" width="120" height="60" as="geometry" />
        </mxCell>
        <mxCell id="Fq1G9OksXKFBcymXGuAl-16" value="&lt;b&gt;Пузырьковая&lt;br&gt;диаграмма&lt;br&gt;&lt;/b&gt;" style="rounded=1;whiteSpace=wrap;html=1;" vertex="1" parent="1">
          <mxGeometry x="180" y="440" width="120" height="60" as="geometry" />
        </mxCell>
        <mxCell id="Fq1G9OksXKFBcymXGuAl-17" value="&lt;b&gt;Шкала со значениями&lt;/b&gt;" style="rounded=1;whiteSpace=wrap;html=1;" vertex="1" parent="1">
          <mxGeometry x="320" y="440" width="120" height="60" as="geometry" />
        </mxCell>
        <mxCell id="Fq1G9OksXKFBcymXGuAl-19" value="&lt;b&gt;Тепловая карта&lt;/b&gt;" style="rounded=1;whiteSpace=wrap;html=1;" vertex="1" parent="1">
          <mxGeometry x="460" y="440" width="120" height="60" as="geometry" />
        </mxCell>
        <mxCell id="Fq1G9OksXKFBcymXGuAl-22" value="&lt;b&gt;Горизонтальная гистограмма&lt;/b&gt;" style="rounded=1;whiteSpace=wrap;html=1;" vertex="1" parent="1">
          <mxGeometry x="40" y="290" width="120" height="60" as="geometry" />
        </mxCell>
        <mxCell id="Fq1G9OksXKFBcymXGuAl-24" value="" style="rounded=1;whiteSpace=wrap;html=1;" vertex="1" parent="1">
          <mxGeometry x="621" y="250" width="620" height="350" as="geometry" />
        </mxCell>
        <mxCell id="Fq1G9OksXKFBcymXGuAl-25" value="&lt;font style=&quot;font-size: 18px;&quot;&gt;&lt;b style=&quot;&quot;&gt;Отчет&lt;/b&gt;&lt;/font&gt;" style="text;html=1;strokeColor=none;fillColor=none;align=center;verticalAlign=middle;whiteSpace=wrap;rounded=0;" vertex="1" parent="1">
          <mxGeometry x="900" y="250" width="60" height="30" as="geometry" />
        </mxCell>
        <mxCell id="Fq1G9OksXKFBcymXGuAl-26" value="" style="rounded=1;whiteSpace=wrap;html=1;" vertex="1" parent="1">
          <mxGeometry x="640" y="290" width="580" height="180" as="geometry" />
        </mxCell>
        <mxCell id="Fq1G9OksXKFBcymXGuAl-28" value="&lt;b&gt;Цели и задачи&lt;/b&gt;" style="rounded=1;whiteSpace=wrap;html=1;" vertex="1" parent="1">
          <mxGeometry x="660" y="320" width="120" height="60" as="geometry" />
        </mxCell>
        <mxCell id="Fq1G9OksXKFBcymXGuAl-29" value="&lt;b style=&quot;border-color: var(--border-color);&quot;&gt;План/факт&lt;/b&gt;" style="rounded=1;whiteSpace=wrap;html=1;" vertex="1" parent="1">
          <mxGeometry x="800" y="320" width="120" height="60" as="geometry" />
        </mxCell>
        <mxCell id="Fq1G9OksXKFBcymXGuAl-30" value="&lt;b style=&quot;border-color: var(--border-color);&quot;&gt;Статистика продаж по этапам&lt;/b&gt;" style="rounded=1;whiteSpace=wrap;html=1;" vertex="1" parent="1">
          <mxGeometry x="940" y="320" width="120" height="60" as="geometry" />
        </mxCell>
        <mxCell id="Fq1G9OksXKFBcymXGuAl-31" value="&lt;b style=&quot;border-color: var(--border-color);&quot;&gt;Конверсия и длина сделки&lt;/b&gt;" style="rounded=1;whiteSpace=wrap;html=1;" vertex="1" parent="1">
          <mxGeometry x="1080" y="320" width="120" height="60" as="geometry" />
        </mxCell>
        <mxCell id="Fq1G9OksXKFBcymXGuAl-33" value="&lt;b style=&quot;border-color: var(--border-color); font-size: 14px;&quot;&gt;Отчет менеджера по продажам&lt;/b&gt;" style="text;html=1;strokeColor=none;fillColor=none;align=center;verticalAlign=middle;whiteSpace=wrap;rounded=0;" vertex="1" parent="1">
          <mxGeometry x="800" y="290" width="260" height="30" as="geometry" />
        </mxCell>
        <mxCell id="Fq1G9OksXKFBcymXGuAl-34" value="&lt;b style=&quot;border-color: var(--border-color);&quot;&gt;Сделки и клиенты&lt;/b&gt;" style="rounded=1;whiteSpace=wrap;html=1;" vertex="1" parent="1">
          <mxGeometry x="660" y="400" width="120" height="60" as="geometry" />
        </mxCell>
        <mxCell id="Fq1G9OksXKFBcymXGuAl-35" value="&lt;meta charset=&quot;utf-8&quot;&gt;&lt;b style=&quot;border-color: var(--border-color); color: rgb(0, 0, 0); font-family: Helvetica; font-size: 12px; font-style: normal; font-variant-ligatures: normal; font-variant-caps: normal; letter-spacing: normal; orphans: 2; text-align: center; text-indent: 0px; text-transform: none; widows: 2; word-spacing: 0px; -webkit-text-stroke-width: 0px; background-color: rgb(251, 251, 251); text-decoration-thickness: initial; text-decoration-style: initial; text-decoration-color: initial;&quot;&gt;&lt;font style=&quot;border-color: var(--border-color); font-size: 12px;&quot;&gt;Сводная статистика&lt;/font&gt;&lt;/b&gt;" style="rounded=1;whiteSpace=wrap;html=1;" vertex="1" parent="1">
          <mxGeometry x="800" y="400" width="120" height="60" as="geometry" />
        </mxCell>
        <mxCell id="Fq1G9OksXKFBcymXGuAl-36" value="&lt;meta charset=&quot;utf-8&quot;&gt;&lt;b style=&quot;border-color: var(--border-color); color: rgb(0, 0, 0); font-family: Helvetica; font-size: 12px; font-style: normal; font-variant-ligatures: normal; font-variant-caps: normal; letter-spacing: normal; orphans: 2; text-align: center; text-indent: 0px; text-transform: none; widows: 2; word-spacing: 0px; -webkit-text-stroke-width: 0px; background-color: rgb(251, 251, 251); text-decoration-thickness: initial; text-decoration-style: initial; text-decoration-color: initial;&quot;&gt;Этапы и сумма сделок&lt;/b&gt;" style="rounded=1;whiteSpace=wrap;html=1;" vertex="1" parent="1">
          <mxGeometry x="940" y="400" width="120" height="60" as="geometry" />
        </mxCell>
        <mxCell id="Fq1G9OksXKFBcymXGuAl-37" value="&lt;meta charset=&quot;utf-8&quot;&gt;&lt;b style=&quot;border-color: var(--border-color); color: rgb(0, 0, 0); font-family: Helvetica; font-size: 12px; font-style: normal; font-variant-ligatures: normal; font-variant-caps: normal; letter-spacing: normal; orphans: 2; text-align: center; text-indent: 0px; text-transform: none; widows: 2; word-spacing: 0px; -webkit-text-stroke-width: 0px; background-color: rgb(251, 251, 251); text-decoration-thickness: initial; text-decoration-style: initial; text-decoration-color: initial;&quot;&gt;Пользовательс-&lt;br style=&quot;border-color: var(--border-color);&quot;&gt;кие отчеты&lt;/b&gt;" style="rounded=1;whiteSpace=wrap;html=1;" vertex="1" parent="1">
          <mxGeometry x="1080" y="400" width="120" height="60" as="geometry" />
        </mxCell>
        <mxCell id="Fq1G9OksXKFBcymXGuAl-38" value="" style="rounded=1;whiteSpace=wrap;html=1;" vertex="1" parent="1">
          <mxGeometry x="641" y="480" width="580" height="100" as="geometry" />
        </mxCell>
        <mxCell id="Fq1G9OksXKFBcymXGuAl-39" value="&lt;b style=&quot;border-color: var(--border-color); font-size: 14px;&quot;&gt;Отчет по продажам&lt;/b&gt;" style="text;html=1;strokeColor=none;fillColor=none;align=center;verticalAlign=middle;whiteSpace=wrap;rounded=0;" vertex="1" parent="1">
          <mxGeometry x="829.5" y="480" width="201" height="30" as="geometry" />
        </mxCell>
        <mxCell id="Fq1G9OksXKFBcymXGuAl-41" value="&lt;meta charset=&quot;utf-8&quot;&gt;&lt;b style=&quot;border-color: var(--border-color); color: rgb(0, 0, 0); font-family: Helvetica; font-size: 12px; font-style: normal; font-variant-ligatures: normal; font-variant-caps: normal; letter-spacing: normal; orphans: 2; text-align: center; text-indent: 0px; text-transform: none; widows: 2; word-spacing: 0px; -webkit-text-stroke-width: 0px; background-color: rgb(251, 251, 251); text-decoration-thickness: initial; text-decoration-style: initial; text-decoration-color: initial;&quot;&gt;Вид выпускаемой продукции&lt;/b&gt;" style="rounded=1;whiteSpace=wrap;html=1;" vertex="1" parent="1">
          <mxGeometry x="660" y="510" width="120" height="60" as="geometry" />
        </mxCell>
        <mxCell id="Fq1G9OksXKFBcymXGuAl-42" value="&lt;meta charset=&quot;utf-8&quot;&gt;&lt;b style=&quot;border-color: var(--border-color); color: rgb(0, 0, 0); font-family: Helvetica; font-size: 12px; font-style: normal; font-variant-ligatures: normal; font-variant-caps: normal; letter-spacing: normal; orphans: 2; text-align: center; text-indent: 0px; text-transform: none; widows: 2; word-spacing: 0px; -webkit-text-stroke-width: 0px; background-color: rgb(251, 251, 251); text-decoration-thickness: initial; text-decoration-style: initial; text-decoration-color: initial;&quot;&gt;Клиентская база&lt;/b&gt;" style="rounded=1;whiteSpace=wrap;html=1;" vertex="1" parent="1">
          <mxGeometry x="800" y="510" width="120" height="60" as="geometry" />
        </mxCell>
        <mxCell id="Fq1G9OksXKFBcymXGuAl-43" value="&lt;meta charset=&quot;utf-8&quot;&gt;&lt;b style=&quot;border-color: var(--border-color); color: rgb(0, 0, 0); font-family: Helvetica; font-size: 12px; font-style: normal; font-variant-ligatures: normal; font-variant-caps: normal; letter-spacing: normal; orphans: 2; text-align: center; text-indent: 0px; text-transform: none; widows: 2; word-spacing: 0px; -webkit-text-stroke-width: 0px; background-color: rgb(251, 251, 251); text-decoration-thickness: initial; text-decoration-style: initial; text-decoration-color: initial;&quot;&gt;Каналы сбыта, подразделения и менеджеры&lt;/b&gt;" style="rounded=1;whiteSpace=wrap;html=1;" vertex="1" parent="1">
          <mxGeometry x="940" y="510" width="120" height="60" as="geometry" />
        </mxCell>
        <mxCell id="Fq1G9OksXKFBcymXGuAl-44" value="&lt;meta charset=&quot;utf-8&quot;&gt;&lt;b style=&quot;border-color: var(--border-color); color: rgb(0, 0, 0); font-family: Helvetica; font-size: 12px; font-style: normal; font-variant-ligatures: normal; font-variant-caps: normal; letter-spacing: normal; orphans: 2; text-align: center; text-indent: 0px; text-transform: none; widows: 2; word-spacing: 0px; -webkit-text-stroke-width: 0px; background-color: rgb(251, 251, 251); text-decoration-thickness: initial; text-decoration-style: initial; text-decoration-color: initial;&quot;&gt;Бюджет&amp;nbsp;&lt;span style=&quot;border-color: var(--border-color); color: rgb(32, 33, 36); font-family: &amp;quot;Google Sans&amp;quot;, arial, sans-serif; text-align: left; background-color: rgb(255, 255, 255);&quot;&gt;продаж&lt;/span&gt;&lt;span style=&quot;border-color: var(--border-color); color: rgb(32, 33, 36); font-family: &amp;quot;Google Sans&amp;quot;, arial, sans-serif; text-align: left; background-color: rgb(255, 255, 255);&quot;&gt;: план-факт-выполнение&lt;/span&gt;&lt;/b&gt;" style="rounded=1;whiteSpace=wrap;html=1;" vertex="1" parent="1">
          <mxGeometry x="1080" y="510" width="120" height="60" as="geometry" />
        </mxCell>
        <mxCell id="Fq1G9OksXKFBcymXGuAl-45" style="edgeStyle=orthogonalEdgeStyle;rounded=0;orthogonalLoop=1;jettySize=auto;html=1;exitX=0.5;exitY=1;exitDx=0;exitDy=0;" edge="1" parent="1" source="Fq1G9OksXKFBcymXGuAl-38" target="Fq1G9OksXKFBcymXGuAl-38">
          <mxGeometry relative="1" as="geometry" />
        </mxCell>
      </root>
    </mxGraphModel>
  </diagram>
</mxfile>
